<mxfile host="app.diagrams.net" modified="2021-03-04T06:47:38.085Z" agent="5.0 (Macintosh; Intel Mac OS X 11_2_0) AppleWebKit/537.36 (KHTML, like Gecko) Chrome/88.0.4324.192 Safari/537.36" etag="BRcERuyYylGNV0ZEHB1g" version="14.4.3" type="github">
  <diagram id="jo6dDh-TMifwt6ElA-1v" name="第 1 页">
    <mxGraphModel dx="815" dy="413" grid="1" gridSize="10" guides="1" tooltips="1" connect="1" arrows="1" fold="1" page="1" pageScale="1" pageWidth="827" pageHeight="1169" math="0" shadow="0">
      <root>
        <mxCell id="0" />
        <mxCell id="1" parent="0" />
        <mxCell id="R72ijSZJWarf941itJiW-1" value="网络环境自动生成系统" style="rounded=1;" vertex="1" parent="1">
          <mxGeometry x="312" y="110" width="176" height="40" as="geometry" />
        </mxCell>
        <mxCell id="R72ijSZJWarf941itJiW-2" value="随机网络&#xa;结构生成&#xa;系统" style="rounded=1;" vertex="1" parent="1">
          <mxGeometry x="250" y="210" width="60" height="120" as="geometry" />
        </mxCell>
        <mxCell id="R72ijSZJWarf941itJiW-3" value="策略训&#xa;练学习&#xa;系统" style="rounded=1;" vertex="1" parent="1">
          <mxGeometry x="330" y="210" width="60" height="120" as="geometry" />
        </mxCell>
        <mxCell id="R72ijSZJWarf941itJiW-4" value="多视角&#xa;展示系&#xa;统" style="rounded=1;" vertex="1" parent="1">
          <mxGeometry x="414" y="210" width="60" height="120" as="geometry" />
        </mxCell>
        <mxCell id="R72ijSZJWarf941itJiW-5" value="结果分&#xa;析评估&#xa;系统" style="rounded=1;" vertex="1" parent="1">
          <mxGeometry x="500" y="210" width="60" height="120" as="geometry" />
        </mxCell>
        <mxCell id="R72ijSZJWarf941itJiW-6" value="" style="endArrow=classic;exitX=0.5;exitY=1;exitDx=0;exitDy=0;entryX=0.5;entryY=0;entryDx=0;entryDy=0;" edge="1" parent="1" source="R72ijSZJWarf941itJiW-1" target="R72ijSZJWarf941itJiW-2">
          <mxGeometry width="50" height="50" relative="1" as="geometry">
            <mxPoint x="390" y="360" as="sourcePoint" />
            <mxPoint x="440" y="310" as="targetPoint" />
            <Array as="points">
              <mxPoint x="400" y="180" />
              <mxPoint x="280" y="180" />
            </Array>
          </mxGeometry>
        </mxCell>
        <mxCell id="R72ijSZJWarf941itJiW-7" value="" style="endArrow=classic;exitX=0.5;exitY=1;exitDx=0;exitDy=0;entryX=0.5;entryY=0;entryDx=0;entryDy=0;" edge="1" parent="1" source="R72ijSZJWarf941itJiW-1" target="R72ijSZJWarf941itJiW-3">
          <mxGeometry width="50" height="50" relative="1" as="geometry">
            <mxPoint x="480" y="230" as="sourcePoint" />
            <mxPoint x="530" y="180" as="targetPoint" />
            <Array as="points">
              <mxPoint x="400" y="180" />
              <mxPoint x="360" y="180" />
            </Array>
          </mxGeometry>
        </mxCell>
        <mxCell id="R72ijSZJWarf941itJiW-8" value="" style="endArrow=classic;entryX=0.5;entryY=0;entryDx=0;entryDy=0;" edge="1" parent="1" target="R72ijSZJWarf941itJiW-5">
          <mxGeometry width="50" height="50" relative="1" as="geometry">
            <mxPoint x="400" y="150" as="sourcePoint" />
            <mxPoint x="480" y="160" as="targetPoint" />
            <Array as="points">
              <mxPoint x="400" y="180" />
              <mxPoint x="530" y="180" />
            </Array>
          </mxGeometry>
        </mxCell>
        <mxCell id="R72ijSZJWarf941itJiW-9" value="" style="endArrow=classic;exitX=0.5;exitY=1;exitDx=0;exitDy=0;entryX=0.5;entryY=0;entryDx=0;entryDy=0;" edge="1" parent="1" source="R72ijSZJWarf941itJiW-1" target="R72ijSZJWarf941itJiW-4">
          <mxGeometry width="50" height="50" relative="1" as="geometry">
            <mxPoint x="590" y="180" as="sourcePoint" />
            <mxPoint x="640" y="130" as="targetPoint" />
            <Array as="points">
              <mxPoint x="400" y="180" />
              <mxPoint x="444" y="180" />
            </Array>
          </mxGeometry>
        </mxCell>
      </root>
    </mxGraphModel>
  </diagram>
</mxfile>
